<svg width="70" height="68" viewBox="0 0 70 68" fill="none" xmlns="http://www.w3.org/2000/svg">
<path d="M0.919704 46.8462C0.306568 46.8462 0 46.6205 0 46.1692C0 45.8 0.265692 45.5538 0.797077 45.4308L2.20729 45.1846C3.06568 45.0205 3.6175 44.7949 3.86276 44.5077C4.14889 44.2205 4.29195 43.6462 4.29195 42.7846V6.6C4.29195 5.73846 4.14889 5.1641 3.86276 4.87692C3.6175 4.58974 3.06568 4.3641 2.20729 4.2L0.797077 3.95384C0.265692 3.83077 0 3.58461 0 3.21538C0 2.7641 0.306568 2.53846 0.919704 2.53846H12.1401C12.7532 2.53846 13.0598 2.78461 13.0598 3.27692C13.0598 3.64615 12.835 3.87179 12.3854 3.95384L10.7299 4.2C9.87149 4.32307 9.29923 4.54871 9.0131 4.87692C8.76785 5.20513 8.64522 5.8 8.64522 6.66154V41.1231C8.64522 42.6 9.05398 43.6667 9.87149 44.3231C10.7299 44.9795 11.7927 45.3077 13.0598 45.3077C13.9999 45.3077 14.9605 45.1231 15.9415 44.7538C16.9634 44.3436 17.8831 43.6051 18.7007 42.5385C19.5182 41.4308 20.1313 39.8308 20.5401 37.7385L21.3371 33.6154C21.4598 33.082 21.7663 32.8154 22.2568 32.8154C22.8291 32.8154 23.0744 33.1641 22.9926 33.8615L22.2568 45.4308C22.1751 46.3744 21.6641 46.8462 20.724 46.8462H0.919704Z" fill="#57534E"/>
<path d="M21.3985 68C20.7853 68 20.4787 67.7744 20.4787 67.3231C20.4787 66.8718 20.7444 66.6256 21.2758 66.5846L24.0349 66.1538C24.8525 66.0308 25.4043 65.8256 25.6904 65.5385C25.9765 65.2103 26.1196 64.6154 26.1196 63.7538V26.8308C26.1196 26.2564 25.997 25.8462 25.7517 25.6C25.5065 25.3538 24.9955 25.2308 24.2189 25.2308C22.7065 25.2308 21.2145 25.8872 19.743 27.2C18.2715 28.5128 17.3109 30.6256 16.8612 33.5385L16.5547 35.5692C16.4729 36.1026 16.1868 36.3692 15.6963 36.3692C15.0831 36.3692 14.8175 36.0205 14.8992 35.3231L15.451 24.1846C15.5328 23.241 15.9007 22.7692 16.5547 22.7692C16.8408 22.7692 17.1065 22.8513 17.3518 23.0154C17.597 23.1385 18.0058 23.282 18.578 23.4462C19.1912 23.6103 20.1517 23.6923 21.4598 23.6923H35.1327C36.4407 23.6923 37.3809 23.6103 37.9531 23.4462C38.5663 23.282 38.9955 23.1385 39.2407 23.0154C39.5268 22.8513 39.7925 22.7692 40.0378 22.7692C40.6918 22.7692 41.0597 23.241 41.1414 24.1846L41.6933 35.3231C41.775 36.0205 41.5093 36.3692 40.8962 36.3692C40.4057 36.3692 40.1195 36.1026 40.0378 35.5692L39.7312 33.5385C39.3225 30.6256 38.3823 28.5128 36.9108 27.2C35.4393 25.8872 33.9269 25.2308 32.3736 25.2308C31.5969 25.2308 31.086 25.3538 30.8407 25.6C30.5955 25.8462 30.4729 26.2564 30.4729 26.8308V63.7538C30.4729 64.6154 30.6159 65.2103 30.9021 65.5385C31.2291 65.8256 31.7809 66.0308 32.5575 66.1538L35.3166 66.5846C35.848 66.6256 36.1137 66.8718 36.1137 67.3231C36.1137 67.7744 35.8071 68 35.194 68H21.3985Z" fill="#57534E"/>
<path d="M21.5249 20.1654C20.6129 20.1654 19.7902 19.8603 19.057 19.25C18.3417 18.6218 17.7695 17.7692 17.3403 16.6923C16.9111 15.6154 16.6965 14.4128 16.6965 13.0846C16.6965 11.7564 16.9111 10.5628 17.3403 9.50385C17.7695 8.44487 18.3507 7.60128 19.0839 6.97308C19.8171 6.34487 20.6308 6.03077 21.5249 6.03077C22.437 6.03077 23.2506 6.34487 23.966 6.97308C24.6992 7.60128 25.2804 8.44487 25.7096 9.50385C26.1388 10.5628 26.3534 11.7564 26.3534 13.0846C26.3534 14.4128 26.1388 15.6154 25.7096 16.6923C25.2983 17.7692 24.726 18.6218 23.9928 19.25C23.2596 19.8603 22.437 20.1654 21.5249 20.1654ZM21.5249 19.4923C23.3848 19.4923 24.3147 17.3564 24.3147 13.0846C24.3147 8.83077 23.3848 6.70385 21.5249 6.70385C19.6651 6.70385 18.7351 8.83077 18.7351 13.0846C18.7351 17.3564 19.6651 19.4923 21.5249 19.4923Z" fill="#57534E"/>
<path d="M31.8579 20.1654C31.071 20.1654 30.3557 19.9051 29.7119 19.3846C29.086 18.8462 28.5853 18.0833 28.2097 17.0962C27.8342 16.109 27.6464 14.9333 27.6464 13.5692C27.6464 12.0436 27.8699 10.7154 28.317 9.58462C28.782 8.45385 29.4079 7.58333 30.1947 6.97308C30.9816 6.34487 31.8579 6.03077 32.8236 6.03077C33.6462 6.03077 34.29 6.19231 34.7549 6.51538C34.9338 6.64103 35.0232 6.83846 35.0232 7.10769L35.0768 10.3923C35.0768 10.6615 34.9695 10.7962 34.7549 10.7962C34.5582 10.7962 34.433 10.6795 34.3794 10.4462C34.129 9.45897 33.8876 8.69615 33.6551 8.15769C33.4226 7.61923 33.1812 7.25128 32.9309 7.05385C32.6805 6.83846 32.4033 6.73077 32.0993 6.73077C31.7416 6.73077 31.3661 6.93718 30.9727 7.35C30.5971 7.76282 30.2752 8.4359 30.007 9.36923C29.7566 10.2846 29.6314 11.4962 29.6314 13.0038C29.6314 14.9244 29.8728 16.3692 30.3557 17.3385C30.8564 18.3077 31.5002 18.7923 32.2871 18.7923C32.913 18.7923 33.4316 18.5321 33.8429 18.0115C34.2721 17.491 34.6387 16.5487 34.9427 15.1846C34.9964 14.9872 35.1037 14.8885 35.2646 14.8885C35.4792 14.8885 35.5597 15.0679 35.506 15.4269C35.3093 16.6833 35.0321 17.6615 34.6745 18.3615C34.3347 19.0436 33.9234 19.5192 33.4405 19.7885C32.9756 20.0397 32.448 20.1654 31.8579 20.1654Z" fill="#57534E"/>
<path d="M39.3384 20.1654C38.5873 20.1654 37.9703 19.9321 37.4875 19.4654C37.0047 18.9808 36.7632 18.3436 36.7632 17.5538C36.7632 16.7821 37.0047 16.0551 37.4875 15.3731C37.9703 14.6731 38.632 14.0449 39.4725 13.4885C40.313 12.9321 41.2698 12.4833 42.3428 12.1423C42.5752 12.0705 42.6915 11.9179 42.6915 11.6846V9.23462C42.6915 8.37308 42.5574 7.76282 42.2891 7.40385C42.0209 7.02692 41.6543 6.83846 41.1893 6.83846C40.7422 6.83846 40.3309 7.04487 39.9554 7.45769C39.5977 7.85256 39.3384 8.52564 39.1775 9.47692C39.088 10.0513 38.8913 10.4731 38.5873 10.7423C38.3012 10.9936 38.0061 11.1192 37.7021 11.1192C37.2014 11.1192 36.951 10.8679 36.951 10.3654C36.951 9.84487 37.0941 9.33333 37.3802 8.83077C37.6842 8.31026 38.0776 7.84359 38.5605 7.43077C39.0433 7 39.5709 6.65897 40.1431 6.40769C40.7154 6.15641 41.2877 6.03077 41.8599 6.03077C43.6304 6.03077 44.5156 7.06282 44.5156 9.12692V17.3654C44.5156 18.1192 44.7033 18.4962 45.0789 18.4962C45.3114 18.4962 45.526 18.3436 45.7227 18.0385C45.9194 17.7154 46.0178 17.1769 46.0178 16.4231C46.0178 16.1359 46.134 15.9923 46.3665 15.9923C46.5811 15.9923 46.6884 16.1449 46.6884 16.45C46.6884 17.7603 46.4559 18.7115 45.9909 19.3038C45.5439 19.8782 45.0342 20.1654 44.4619 20.1654C44.0327 20.1654 43.6929 19.9949 43.4426 19.6538C43.1922 19.2949 43.0223 18.8731 42.9329 18.3885C42.915 18.209 42.8346 18.1192 42.6915 18.1192C42.5663 18.1013 42.4411 18.1821 42.3159 18.3615C41.8867 18.9538 41.4486 19.4026 41.0015 19.7077C40.5545 20.0128 40.0001 20.1654 39.3384 20.1654ZM40.0627 18.9269C40.5276 18.9269 40.9568 18.7654 41.3503 18.4423C41.7437 18.1013 42.0656 17.6526 42.3159 17.0962C42.5663 16.5397 42.6915 15.9115 42.6915 15.2115V13.2462C42.6915 12.9051 42.5037 12.8064 42.1282 12.95C41.0373 13.3449 40.1879 13.8923 39.5798 14.5923C38.9897 15.2744 38.6946 16.1 38.6946 17.0692C38.6946 18.3077 39.1506 18.9269 40.0627 18.9269Z" fill="#57534E"/>
<path d="M47.3701 19.9231C47.1555 19.9231 47.0482 19.8244 47.0482 19.6269C47.0482 19.4474 47.1466 19.3397 47.3433 19.3038L47.7188 19.25C48.0944 19.1962 48.3716 19.0885 48.5504 18.9269C48.7292 18.7654 48.8186 18.4962 48.8186 18.1192V2.69231C48.8186 2.36923 48.765 2.14487 48.6577 2.01923C48.5683 1.89359 48.3984 1.82179 48.148 1.80385L47.531 1.72308C47.3343 1.68718 47.236 1.57949 47.236 1.4C47.236 1.22051 47.3343 1.11282 47.531 1.07692C48.0318 0.96923 48.461 0.843589 48.8186 0.699999C49.1763 0.556409 49.4714 0.412819 49.7038 0.269231C49.99 0.0897435 50.2046 0 50.3476 0C50.5444 0 50.6427 0.14359 50.6427 0.430768V18.1192C50.6427 18.4962 50.6964 18.7654 50.8037 18.9269C50.9288 19.0705 51.1792 19.1692 51.5548 19.2231L52.1717 19.3038C52.3684 19.3397 52.4668 19.4474 52.4668 19.6269C52.4668 19.8244 52.3595 19.9231 52.1449 19.9231H47.3701Z" fill="#57534E"/>
<path d="M38.459 54.7808C37.7079 54.7808 37.0909 54.5474 36.6081 54.0808C36.1252 53.5962 35.8838 52.959 35.8838 52.1692C35.8838 51.3974 36.1252 50.6705 36.6081 49.9885C37.0909 49.2885 37.7526 48.6603 38.5931 48.1038C39.4336 47.5474 40.3903 47.0987 41.4633 46.7577C41.6958 46.6859 41.8121 46.5333 41.8121 46.3V43.85C41.8121 42.9885 41.6779 42.3782 41.4097 42.0192C41.1414 41.6423 40.7748 41.4538 40.3099 41.4538C39.8628 41.4538 39.4515 41.6603 39.0759 42.0731C38.7183 42.4679 38.459 43.141 38.298 44.0923C38.2086 44.6667 38.0119 45.0885 37.7079 45.3577C37.4217 45.609 37.1267 45.7346 36.8227 45.7346C36.3219 45.7346 36.0716 45.4833 36.0716 44.9808C36.0716 44.4603 36.2146 43.9487 36.5008 43.4462C36.8048 42.9256 37.1982 42.459 37.681 42.0462C38.1639 41.6154 38.6914 41.2744 39.2637 41.0231C39.836 40.7718 40.4082 40.6462 40.9805 40.6462C42.7509 40.6462 43.6361 41.6782 43.6361 43.7423V51.9808C43.6361 52.7346 43.8239 53.1115 44.1995 53.1115C44.4319 53.1115 44.6465 52.959 44.8432 52.6538C45.04 52.3308 45.1383 51.7923 45.1383 51.0385C45.1383 50.7513 45.2546 50.6077 45.487 50.6077C45.7016 50.6077 45.8089 50.7603 45.8089 51.0654C45.8089 52.3756 45.5765 53.3269 45.1115 53.9192C44.6644 54.4936 44.1547 54.7808 43.5825 54.7808C43.1533 54.7808 42.8135 54.6103 42.5631 54.2692C42.3128 53.9103 42.1429 53.4885 42.0535 53.0038C42.0356 52.8244 41.9551 52.7346 41.8121 52.7346C41.6869 52.7167 41.5617 52.7974 41.4365 52.9769C41.0073 53.5692 40.5692 54.0179 40.1221 54.3231C39.675 54.6282 39.1206 54.7808 38.459 54.7808ZM39.1832 53.5423C39.6482 53.5423 40.0774 53.3808 40.4708 53.0577C40.8642 52.7167 41.1861 52.2679 41.4365 51.7115C41.6869 51.1551 41.8121 50.5269 41.8121 49.8269V47.8615C41.8121 47.5205 41.6243 47.4218 41.2487 47.5654C40.1579 47.9603 39.3084 48.5077 38.7004 49.2077C38.1102 49.8897 37.8152 50.7154 37.8152 51.6846C37.8152 52.9231 38.2712 53.5423 39.1832 53.5423Z" fill="#57534E"/>
<path d="M49.4682 54.7808C49.0569 54.7808 48.6188 54.7269 48.1538 54.6192C47.6888 54.5295 47.3133 54.4128 47.0272 54.2692C46.8662 54.1795 46.7857 54.0269 46.7857 53.8115L46.7053 50.7962C46.7053 50.491 46.8215 50.3385 47.054 50.3385C47.2507 50.3385 47.3848 50.482 47.4563 50.7692C47.7604 52.0436 48.127 52.9141 48.5562 53.3808C49.0032 53.8474 49.5397 54.0808 50.1656 54.0808C50.6843 54.0808 51.1135 53.8833 51.4532 53.4885C51.793 53.0756 51.9629 52.5103 51.9629 51.7923C51.9629 51.0744 51.7662 50.4372 51.3728 49.8808C50.9793 49.3244 50.3177 48.7141 49.3877 48.05C48.4578 47.4218 47.7782 46.7936 47.3491 46.1654C46.9199 45.5192 46.7053 44.8192 46.7053 44.0654C46.7053 43.0423 47.0629 42.2167 47.7782 41.5885C48.4936 40.9603 49.4414 40.6462 50.6217 40.6462C50.9793 40.6462 51.328 40.691 51.6678 40.7808C52.0076 40.8526 52.3116 40.9782 52.5799 41.1577C52.7408 41.2654 52.8213 41.409 52.8213 41.5885L52.8749 44.55C52.8749 44.8192 52.7676 44.9538 52.553 44.9538C52.4279 44.9538 52.3384 44.9179 52.2848 44.8462C52.2311 44.7564 52.1864 44.6487 52.1507 44.5231C51.793 43.3564 51.4353 42.5487 51.0777 42.1C50.72 41.6333 50.2819 41.4 49.7633 41.4C49.2983 41.4 48.9138 41.5615 48.6098 41.8846C48.3058 42.2077 48.1538 42.6115 48.1538 43.0962C48.1538 43.7244 48.3416 44.2718 48.7171 44.7385C49.0927 45.2051 49.7722 45.7795 50.7558 46.4615C51.6499 47.1077 52.3206 47.8077 52.7676 48.5615C53.2326 49.2974 53.4651 50.1051 53.4651 50.9846C53.4651 52.1333 53.0985 53.0577 52.3653 53.7577C51.6321 54.4397 50.6664 54.7808 49.4682 54.7808Z" fill="#57534E"/>
<path d="M58.1491 54.7808C57.5232 54.7808 57.0046 54.5654 56.5933 54.1346C56.1999 53.6859 56.0032 52.959 56.0032 51.9538V41.8846C56.0032 41.6692 55.8959 41.5615 55.6813 41.5615H54.9033C54.6172 41.5615 54.4742 41.4538 54.4742 41.2385C54.4742 41.0949 54.5546 40.9692 54.7156 40.8615C55.3057 40.4487 55.7796 40.009 56.1373 39.5423C56.4949 39.0577 56.8079 38.4026 57.0761 37.5769C57.2013 37.2 57.3533 37.0115 57.5322 37.0115C57.7289 37.0115 57.8272 37.1551 57.8272 37.4423V40.4308C57.8272 40.6821 57.9524 40.8077 58.2028 40.8077H59.9464C60.2325 40.8077 60.3756 40.9333 60.3756 41.1846C60.3756 41.4359 60.2325 41.5615 59.9464 41.5615H58.2028C57.9524 41.5615 57.8272 41.6872 57.8272 41.9385V51.9808C57.8272 52.3756 57.8898 52.6897 58.015 52.9231C58.1402 53.1385 58.3727 53.2462 58.7125 53.2462C59.088 53.2462 59.392 53.0577 59.6245 52.6808C59.8749 52.3038 60.0358 51.6936 60.1073 50.85C60.1431 50.5987 60.2593 50.4731 60.4561 50.4731C60.6707 50.4731 60.778 50.6077 60.778 50.8769C60.7243 52.259 60.4382 53.2551 59.9196 53.8654C59.4188 54.4756 58.8287 54.7808 58.1491 54.7808Z" fill="#57534E"/>
<path d="M66.2982 54.7808C65.4398 54.7808 64.6708 54.4936 63.9913 53.9192C63.3117 53.3449 62.7663 52.5372 62.355 51.4962C61.9615 50.4372 61.7648 49.2167 61.7648 47.8346C61.7648 46.4167 61.9705 45.1692 62.3818 44.0923C62.7931 43.0154 63.3564 42.1718 64.0717 41.5615C64.7871 40.9513 65.5829 40.6462 66.4591 40.6462C67.5142 40.6462 68.3637 41.0859 69.0075 41.9654C69.6692 42.8269 70 44.2359 70 46.1923C70 46.7846 69.7765 47.0808 69.3294 47.0808H64.2327C63.875 47.0808 63.6962 47.2872 63.6962 47.7C63.6962 49.6026 63.9734 51.0295 64.5278 51.9808C65.0821 52.9321 65.7885 53.4077 66.6469 53.4077C67.3265 53.4077 67.8808 53.1654 68.31 52.6808C68.7392 52.1962 69.088 51.3795 69.3562 50.2308C69.4099 50.0333 69.5261 49.9346 69.7049 49.9346C69.9195 49.9346 70 50.1141 69.9464 50.4731C69.6602 52.0705 69.2042 53.1923 68.5783 53.8385C67.9524 54.4667 67.1923 54.7808 66.2982 54.7808ZM64.1522 46.4077H66.8615C67.7199 46.4077 68.1491 45.959 68.1491 45.0615C68.1491 43.8949 68.006 42.9795 67.7199 42.3154C67.4338 41.6513 67.0046 41.3192 66.4323 41.3192C65.7349 41.3192 65.1447 41.7231 64.6619 42.5308C64.1969 43.3385 63.8929 44.4872 63.7498 45.9769C63.7141 46.2641 63.8482 46.4077 64.1522 46.4077Z" fill="#57534E"/>
</svg>
